<svg width="140" height="25" viewBox="0 0 140 25" fill="none" xmlns="http://www.w3.org/2000/svg">
<path d="M12 3.84375L15.09 9.76804L22 10.7239L17 15.3328L18.18 21.8438L12 18.768L5.82 21.8438L7 15.3328L2 10.7239L8.91 9.76804L12 3.84375Z" fill="white"/>
<path d="M40 3.84375L43.09 9.76804L50 10.7239L45 15.3328L46.18 21.8438L40 18.768L33.82 21.8438L35 15.3328L30 10.7239L36.91 9.76804L40 3.84375Z" fill="white"/>
<path d="M68 3.84375L71.09 9.76804L78 10.7239L73 15.3328L74.18 21.8438L68 18.768L61.82 21.8438L63 15.3328L58 10.7239L64.91 9.76804L68 3.84375Z" fill="white"/>
<path d="M96 3.84375L99.09 9.76804L106 10.7239L101 15.3328L102.18 21.8438L96 18.768L89.82 21.8438L91 15.3328L86 10.7239L92.91 9.76804L96 3.84375Z" fill="white"/>
<path d="M124 3.84375L127.09 9.76804L134 10.7239L129 15.3328L130.18 21.8438L124 18.768L117.82 21.8438L119 15.3328L114 10.7239L120.91 9.76804L124 3.84375Z" fill="white"/>
</svg>
